<?xml version="1.0" encoding="UTF-8"?>
<svg viewBox="0 0 1000 600" xmlns="http://www.w3.org/2000/svg">
  <!-- Fundo -->
  <rect width="1000" height="600" fill="#f9f9f9"/>
  
  <!-- Título -->
  <text x="20" y="40" font-family="Segoe UI" font-size="24" font-weight="bold" fill="#005e8a">Gráfico de Gantt - Visão Geral</text>
  <line x1="20" y1="50" x2="980" y2="50" stroke="#80bc00" stroke-width="2"/>
  
  <!-- Filtros no topo -->
  <rect x="20" y="70" width="960" height="50" rx="4" fill="white" stroke="#dce8f1" stroke-width="1"/>
  <text x="40" y="100" font-family="Segoe UI" font-size="14" font-weight="bold" fill="#333333">Filtros:</text>
  <text x="100" y="100" font-family="Segoe UI" font-size="14" fill="#333333">Iniciativa:</text>
  <rect x="170" y="85" width="180" height="25" rx="4" fill="white" stroke="#dce8f1" stroke-width="1"/>
  <text x="180" y="100" font-family="Segoe UI" font-size="14" fill="#666666">Todas</text>
  <polygon points="340,97 350,90 350,104" fill="#333333"/>
  
  <text x="380" y="100" font-family="Segoe UI" font-size="14" fill="#333333">Período:</text>
  <rect x="440" y="85" width="180" height="25" rx="4" fill="white" stroke="#dce8f1" stroke-width="1"/>
  <text x="450" y="100" font-family="Segoe UI" font-size="14" fill="#666666">2025</text>
  <polygon points="610,97 620,90 620,104" fill="#333333"/>
  
  <text x="650" y="100" font-family="Segoe UI" font-size="14" fill="#333333">Exibir:</text>
  <rect x="700" y="85" width="180" height="25" rx="4" fill="white" stroke="#dce8f1" stroke-width="1"/>
  <text x="710" y="100" font-family="Segoe UI" font-size="14" fill="#666666">Todos os níveis</text>
  <polygon points="870,97 880,90 880,104" fill="#333333"/>
  
  <!-- Cabeçalho do gráfico - Linha do tempo -->
  <rect x="250" y="130" width="730" height="30" fill="#f5f9fc" stroke="#dce8f1" stroke-width="1"/>
  <text x="315" y="150" font-family="Segoe UI" font-size="12" fill="#333333" text-anchor="middle">Jan</text>
  <text x="375" y="150" font-family="Segoe UI" font-size="12" fill="#333333" text-anchor="middle">Fev</text>
  <text x="435" y="150" font-family="Segoe UI" font-size="12" fill="#333333" text-anchor="middle">Mar</text>
  <text x="495" y="150" font-family="Segoe UI" font-size="12" fill="#333333" text-anchor="middle">Abr</text>
  <text x="555" y="150" font-family="Segoe UI" font-size="12" fill="#333333" text-anchor="middle">Mai</text>
  <text x="615" y="150" font-family="Segoe UI" font-size="12" fill="#333333" text-anchor="middle">Jun</text>
  <text x="675" y="150" font-family="Segoe UI" font-size="12" fill="#333333" text-anchor="middle">Jul</text>
  <text x="735" y="150" font-family="Segoe UI" font-size="12" fill="#333333" text-anchor="middle">Ago</text>
  <text x="795" y="150" font-family="Segoe UI" font-size="12" fill="#333333" text-anchor="middle">Set</text>
  <text x="855" y="150" font-family="Segoe UI" font-size="12" fill="#333333" text-anchor="middle">Out</text>
  <text x="915" y="150" font-family="Segoe UI" font-size="12" fill="#333333" text-anchor="middle">Nov</text>
  <text x="975" y="150" font-family="Segoe UI" font-size="12" fill="#333333" text-anchor="middle">Dez</text>
  
  <!-- Divisões de coluna para meses -->
  <line x1="280" y1="130" x2="280" y2="580" stroke="#dce8f1" stroke-width="1"/>
  <line x1="340" y1="130" x2="340" y2="580" stroke="#dce8f1" stroke-width="1"/>
  <line x1="400" y1="130" x2="400" y2="580" stroke="#dce8f1" stroke-width="1"/>
  <line x1="460" y1="130" x2="460" y2="580" stroke="#dce8f1" stroke-width="1"/>
  <line x1="520" y1="130" x2="520" y2="580" stroke="#dce8f1" stroke-width="1"/>
  <line x1="580" y1="130" x2="580" y2="580" stroke="#dce8f1" stroke-width="1"/>
  <line x1="640" y1="130" x2="640" y2="580" stroke="#dce8f1" stroke-width="1"/>
  <line x1="700" y1="130" x2="700" y2="580" stroke="#dce8f1" stroke-width="1"/>
  <line x1="760" y1="130" x2="760" y2="580" stroke="#dce8f1" stroke-width="1"/>
  <line x1="820" y1="130" x2="820" y2="580" stroke="#dce8f1" stroke-width="1"/>
  <line x1="880" y1="130" x2="880" y2="580" stroke="#dce8f1" stroke-width="1"/>
  <line x1="940" y1="130" x2="940" y2="580" stroke="#dce8f1" stroke-width="1"/>
  
  <!-- Cabeçalho das linhas -->
  <rect x="20" y="130" width="230" height="30" fill="#f5f9fc" stroke="#dce8f1" stroke-width="1"/>
  <text x="30" y="150" font-family="Segoe UI" font-size="14" font-weight="bold" fill="#333333">Item</text>
  
  <!-- Iniciativas -->
  <rect x="20" y="160" width="230" height="40" fill="#f5f9fc" stroke="#dce8f1" stroke-width="1"/>
  <text x="30" y="185" font-family="Segoe UI" font-size="14" font-weight="bold" fill="#005e8a">INI-001: Modernização de Gateway</text>
  
  <!-- Barra da Iniciativa -->
  <rect x="280" y="165" width="660" height="30" rx="4" fill="#d1e6f9" stroke="#005e8a" stroke-width="1"/>
  <rect x="280" y="165" width="330" height="30" rx="4" fill="#005e8a"/>
  <text x="290" y="185" font-family="Segoe UI" font-size="12" fill="white">50% Concluído</text>
  
  <!-- Pacotes de Entrega da Iniciativa 1 -->
  <rect x="20" y="200" width="230" height="40" fill="white" stroke="#dce8f1" stroke-width="1"/>
  <text x="50" y="225" font-family="Segoe UI" font-size="14" fill="#333333">PKG-001: Infraestrutura Base</text>
  
  <!-- Barra do Pacote 1 -->
  <rect x="280" y="205" width="300" height="30" rx="4" fill="#80bc00" stroke="#558000" stroke-width="1"/>
  <text x="290" y="225" font-family="Segoe UI" font-size="12" fill="white">Concluído</text>
  
  <rect x="20" y="240" width="230" height="40" fill="white" stroke="#dce8f1" stroke-width="1"/>
  <text x="50" y="265" font-family="Segoe UI" font-size="14" fill="#333333">PKG-002: API Gateway</text>
  
  <!-- Barra do Pacote 2 -->
  <rect x="400" y="245" width="240" height="30" rx="4" fill="#e0f0d9" stroke="#80bc00" stroke-width="1"/>
  <rect x="400" y="245" width="120" height="30" rx="4" fill="#80bc00"/>
  <text x="410" y="265" font-family="Segoe UI" font-size="12" fill="white">50%</text>
  
  <rect x="20" y="280" width="230" height="40" fill="white" stroke="#dce8f1" stroke-width="1"/>
  <text x="50" y="305" font-family="Segoe UI" font-size="14" fill="#333333">PKG-003: Segurança</text>
  
  <!-- Barra do Pacote 3 -->
  <rect x="580" y="285" width="260" height="30" rx="4" fill="#fcecd2" stroke="#f39c12" stroke-width="1"/>
  <text x="590" y="305" font-family="Segoe UI" font-size="12" fill="#a86228">Não iniciado</text>
  
  <!-- Épicos do Pacote 1 -->
  <rect x="20" y="320" width="230" height="40" fill="#f9f9f9" stroke="#dce8f1" stroke-width="1"/>
  <text x="70" y="345" font-family="Segoe UI" font-size="14" fill="#666666">EP-001: Servidores</text>
  
  <!-- Barra do Épico 1 -->
  <rect x="280" y="325" width="120" height="30" rx="4" fill="#80bc00" stroke="#558000" stroke-width="1"/>
  <text x="290" y="345" font-family="Segoe UI" font-size="12" fill="white">Concluído</text>
  
  <rect x="20" y="360" width="230" height="40" fill="#f9f9f9" stroke="#dce8f1" stroke-width="1"/>
  <text x="70" y="385" font-family="Segoe UI" font-size="14" fill="#666666">EP-002: Rede</text>
  
  <!-- Barra do Épico 2 -->
  <rect x="340" y="365" width="120" height="30" rx="4" fill="#80bc00" stroke="#558000" stroke-width="1"/>
  <text x="350" y="385" font-family="Segoe UI" font-size="12" fill="white">Concluído</text>
  
  <!-- Épicos do Pacote 2 -->
  <rect x="20" y="400" width="230" height="40" fill="#f9f9f9" stroke="#dce8f1" stroke-width="1"/>
  <text x="70" y="425" font-family="Segoe UI" font-size="14" fill="#666666">EP-003: Camada de API</text>
  
  <!-- Barra do Épico 3 -->
  <rect x="400" y="405" width="120" height="30" rx="4" fill="#80bc00" stroke="#558000" stroke-width="1"/>
  <text x="410" y="425" font-family="Segoe UI" font-size="12" fill="white">Concluído</text>
  
  <rect x="20" y="440" width="230" height="40" fill="#f9f9f9" stroke="#dce8f1" stroke-width="1"/>
  <text x="70" y="465" font-family="Segoe UI" font-size="14" fill="#666666">EP-004: Integração</text>
  
  <!-- Barra do Épico 4 -->
  <rect x="460" y="445" width="120" height="30" rx="4" fill="#e0f0d9" stroke="#80bc00" stroke-width="1"/>
  <rect x="460" y="445" width="60" height="30" rx="4" fill="#80bc00"/>
  <text x="470" y="465" font-family="Segoe UI" font-size="12" fill="white">50%</text>
  
  <!-- Segunda Iniciativa -->
  <rect x="20" y="480" width="230" height="40" fill="#f5f9fc" stroke="#dce8f1" stroke-width="1"/>
  <text x="30" y="505" font-family="Segoe UI" font-size="14" font-weight="bold" fill="#005e8a">INI-002: Migração para Nuvem</text>
  
  <!-- Barra da Iniciativa 2 -->
  <rect x="520" y="485" width="420" height="30" rx="4" fill="#d1e6f9" stroke="#005e8a" stroke-width="1"/>
  <text x="530" y="505" font-family="Segoe UI" font-size="12" fill="#2d7fc9">Planejado</text>
  
  <!-- Pacote da Iniciativa 2 -->
  <rect x="20" y="520" width="230" height="40" fill="white" stroke="#dce8f1" stroke-width="1"/>
  <text x="50" y="545" font-family="Segoe UI" font-size="14" fill="#333333">PKG-004: Migração Fase 1</text>
  
  <!-- Barra do Pacote 4 -->
  <rect x="520" y="525" width="180" height="30" rx="4" fill="#d1e6f9" stroke="#2d7fc9" stroke-width="1"/>
  <text x="530" y="545" font-family="Segoe UI" font-size="12" fill="#2d7fc9">Planejado</text>
  
  <!-- Conexões de dependência -->
  <line x1="580" y1="285" x2="520" y2="245" stroke="#f39c12" stroke-width="2" stroke-dasharray="5,5"/>
  <polygon points="520,245 525,255 515,255" fill="#f39c12"/>
  
  <!-- Hoje (linha vertical) -->
  <line x1="490" y1="130" x2="490" y2="580" stroke="#d9534f" stroke-width="2"/>
  <text x="490" y="125" font-family="Segoe UI" font-size="12" fill="#d9534f" text-anchor="middle">Hoje</text>
  
  <!-- Marcos importantes -->
  <polygon points="400,205 410,195 420,205 410,215" fill="#d9534f"/>
  <polygon points="640,205 650,195 660,205 650,215" fill="#005e8a"/>
  <polygon points="700,525 710,515 720,525 710,535" fill="#005e8a"/>
  
  <!-- Legenda -->
  <rect x="20" y="570" width="960" height="30" rx="4" fill="white" stroke="#dce8f1" stroke-width="1"/>
  <rect x="40" y="575" width="20" height="20" fill="#80bc00"/>
  <text x="70" y="590" font-family="Segoe UI" font-size="12" fill="#333333">Concluído</text>
  
  <rect x="150" y="575" width="20" height="20" fill="#e0f0d9"/>
  <rect x="150" y="575" width="10" height="20" fill="#80bc00"/>
  <text x="180" y="590" font-family="Segoe UI" font-size="12" fill="#333333">Em Progresso</text>
  
  <rect x="280" y="575" width="20" height="20" fill="#fcecd2"/>
  <text x="310" y="590" font-family="Segoe UI" font-size="12" fill="#333333">Planejado</text>
  
  <rect x="380" y="575" width="20" height="20" fill="#d1e6f9"/>
  <text x="410" y="590" font-family="Segoe UI" font-size="12" fill="#333333">Não Iniciado</text>
  
  <line x1="480" y1="575" x2="480" y2="595" stroke="#d9534f" stroke-width="2"/>
  <text x="490" y="590" font-family="Segoe UI" font-size="12" fill="#333333" dx="15">Hoje</text>
  
  <polygon points="570,585 580,575 590,585 580,595" fill="#005e8a"/>
  <text x="600" y="590" font-family="Segoe UI" font-size="12" fill="#333333">Marco</text>
  
  <line x1="670" y1="580" x2="700" y2="580" stroke="#f39c12" stroke-width="2" stroke-dasharray="5,5"/>
  <polygon points="700,580 690,585 690,575" fill="#f39c12"/>
  <text x="710" y="590" font-family="Segoe UI" font-size="12" fill="#333333">Dependência</text>
</svg>